<?xml version="1.0" standalone="no"?>
<!DOCTYPE svg PUBLIC "-//W3C//DTD SVG 1.1//EN" "http://www.w3.org/Graphics/SVG/1.1/DTD/svg11.dtd">
<svg width="100%" height="100%" viewBox="0 0 500 500" version="1.1" xmlns="http://www.w3.org/2000/svg" xmlns:xlink="http://www.w3.org/1999/xlink" xml:space="preserve" style="fill-rule:evenodd;clip-rule:evenodd;stroke-linejoin:round;stroke-miterlimit:1.41421;">
    <g id="Layer1">
        <g id="Skull">
            <path d="M126.834,388.748C128.056,385.826 243.088,358.997 332.444,272.823C373.885,232.856 379.269,72.9091 407.601,73.0117C429.558,73.0913 464.663,165.823 467.218,200.908C468.272,215.39 460.366,258.408 444.461,287.845C442.385,291.689 460.706,333.081 444.767,360.631C425.506,393.926 375.511,380.096 378.778,389.367C382.355,399.518 386.064,440.676 377.101,454.772C370.955,464.439 353.868,457.802 350.097,457.751C344.787,457.68 341.312,475.369 325.898,476.149C313.896,476.756 308.335,471.818 301.417,471.704C293.651,471.577 286.615,485.702 278.707,484.99C262.709,483.549 256.132,476.589 251.107,475.971C244.256,475.129 238.043,484.399 228.038,484.514C214.594,484.669 209.818,470.982 202.399,470.274C196.166,469.678 188.861,474.721 180.587,475.237C166.735,476.101 162.028,457.225 153.707,456.373C144.542,455.435 137.945,468.739 128.948,455.029C120.813,442.633 123.194,397.457 126.834,388.748Z" style="fill:rgb(0,89,142);stroke-width:1px;stroke:rgb(0,89,142);"/>
            <path d="M247.266,19.0132C328.684,16.8105 357.722,32.4946 394.995,59.5849C501.313,136.856 262.107,484.241 128.854,388.749C125.205,386.135 76.8268,384.976 63.1392,352.939C45.3352,311.267 68.0639,288.692 65.4326,287.524C39.5531,276.034 42.8533,204.219 42.934,201.655C47.9929,41.0221 190.05,20.5611 247.266,19.0132Z" style="fill:rgb(0,115,186);stroke-width:1px;stroke:rgb(0,115,186);"/>
            <path d="M239.478,21.2228C251.442,23.8894 251.999,36.0919 250.01,43.3426C245.559,59.5692 236.813,73.5663 224.112,86.8626C188.392,124.26 138.269,154.377 74.5594,138.642C61.1894,135.34 59.6864,125.461 61.4241,115.946C64.5483,98.8398 80.9218,80.7335 95.0641,68.6254C118.36,48.6803 149.359,33.428 182.421,24.784C200.036,20.1788 220.895,17.0805 239.478,21.2228" style="fill:rgb(130,183,221);stroke-width:1px;stroke:rgb(130,183,221);"/>
            <path d="M235.68,19.6741C247.386,22.1644 247.943,33.5095 246.003,40.2487C241.663,55.3306 233.12,68.3357 220.707,80.6856C185.795,115.421 136.788,143.374 74.4444,128.687C61.3612,125.605 59.8816,116.419 61.5729,107.575C64.6135,91.6734 80.6153,74.855 94.4399,63.6111C117.212,45.0895 147.525,30.9381 179.863,22.9323C197.091,18.667 217.495,15.8058 235.68,19.6741" style="fill:white;stroke-width:1px;stroke:white;"/>
            <path d="M258.11,475.974C262.972,476.592 269.335,483.552 284.815,484.992C292.466,485.704 299.275,471.579 306.79,471.707C313.483,471.82 318.863,476.758 330.477,476.151C345.391,475.371 348.754,457.682 353.891,457.753C357.54,457.803 374.074,464.44 380.021,454.774C388.694,440.677 385.105,399.519 381.644,389.368C378.484,380.097 426.858,393.926 445.496,360.632C460.918,333.081 443.191,291.689 445.201,287.845C460.59,258.408 468.241,215.39 467.221,200.908C454.683,22.9317 302.882,18.9182 252.635,19.0156L253.966,18.9977C203.719,18.9003 51.918,22.9138 39.3799,200.891C38.3598,215.372 46.0109,258.39 61.4002,287.827C63.4096,291.671 45.6832,333.063 61.1052,360.614C79.7428,393.909 128.117,380.079 124.957,389.35C121.496,399.501 117.907,440.659 126.58,454.756C132.527,464.422 149.061,457.785 152.71,457.735C157.847,457.664 161.21,475.353 176.124,476.133C187.737,476.74 193.118,471.802 199.811,471.689C207.326,471.561 214.134,485.686 221.786,484.974C237.266,483.534 251.481,475.132 258.11,475.974Z" style="fill:none;stroke-width:15px;stroke:rgb(19,27,35);"/>
            <path d="M250.96,294.941C259.151,294.941 275.506,361.136 275.533,372.366C275.56,383.596 259.314,362.322 251.123,362.322C242.931,362.322 226.414,383.596 226.387,372.366C226.36,361.136 242.769,294.941 250.96,294.941Z" style="fill:rgb(19,27,35);stroke-width:5px;stroke:rgb(19,27,35);"/>
            <path d="M252.975,219.347C254.95,219.52 258.846,219.446 260.768,219.074C299.218,211.623 331.764,163.295 376.779,168.243C434.802,165.043 455.05,262.226 398.518,286.619C337.151,313.098 305.218,244.233 261.899,238.093L254.104,238.014C203.849,240.19 168.083,310.601 114.365,286.056C59.2497,260.872 77.3452,167.681 136.104,167.681C184.546,161.048 218.663,216.328 252.975,219.347Z" style="fill:white;stroke-width:5px;stroke:white;"/>
            <path d="M226.21,245.813C203.152,258.835 180.863,272.675 152.092,282.682C129.48,290.548 116.146,281.003 114.867,280.361C108.067,276.948 83.9817,255.319 82.3371,243.667" style="fill:none;stroke-width:5px;stroke:rgb(217,217,217);"/>
            <path d="M289.521,249.797C311.294,265.872 321.517,270.762 352.385,283.21C363.683,287.766 386.079,287.96 402.87,278.309C419.208,268.918 430.589,251.941 430.268,243.369" style="fill:none;stroke-width:5px;stroke:rgb(217,217,217);"/>
            <path d="M252.975,219.347C254.95,219.52 258.846,219.446 260.768,219.074C299.218,211.623 331.764,163.295 376.779,168.243C434.802,165.043 455.05,262.226 398.518,286.619C337.151,313.098 305.218,244.233 261.899,238.093L254.104,238.014C203.849,240.19 168.083,310.601 114.365,286.056C59.2497,260.872 77.3452,167.681 136.104,167.681C184.546,161.048 218.663,216.328 252.975,219.347Z" style="fill:none;stroke-width:5px;stroke:white;"/>
        </g>
    </g>
</svg>
